999
"DXF R12 Output" (www.mydxf.blogspot.com)
 0 
SECTION
 2 
HEADER
 9 
$ACADVER
 1 
AC1009
 9 
$EXTMIN
 10 
 0 
 20 
 0 
 9 
$EXTMAX
 10 
 8.5 
 20 
 11 
 0 
ENDSEC
 0 
SECTION
 2 
ENTITIES
0
LINE
8
Layer 1
10
44.070800
20
55.733000
11
43.800888
21
53.208050
0
LINE
8
Layer 1
10
43.800888
20
53.208050
11
43.023594
21
50.838234
0
LINE
8
Layer 1
10
43.023594
20
50.838234
11
41.787577
21
48.670694
0
LINE
8
Layer 1
10
41.787577
20
48.670694
11
40.141495
21
46.752571
0
LINE
8
Layer 1
10
40.141495
20
46.752571
11
38.134008
21
45.131008
0
LINE
8
Layer 1
10
38.134008
20
45.131008
11
35.813774
21
43.853147
0
LINE
8
Layer 1
10
35.813774
20
43.853147
11
33.229451
21
42.966130
0
LINE
8
Layer 1
10
33.229451
20
42.966130
11
30.429700
21
42.517100
0
LINE
8
Layer 1
10
30.429700
20
42.517100
11
27.585218
21
42.547735
0
LINE
8
Layer 1
10
27.585218
20
42.547735
11
24.872089
21
43.042065
0
LINE
8
Layer 1
10
24.872089
20
43.042065
11
22.347038
21
43.960758
0
LINE
8
Layer 1
10
22.347038
20
43.960758
11
20.066785
21
45.264484
0
LINE
8
Layer 1
10
20.066785
20
45.264484
11
18.088052
21
46.913911
0
LINE
8
Layer 1
10
18.088052
20
46.913911
11
16.467563
21
48.869711
0
LINE
8
Layer 1
10
16.467563
20
48.869711
11
15.262038
21
51.092550
0
LINE
8
Layer 1
10
15.262038
20
51.092550
11
14.528200
21
53.543100
0
LINE
8
Layer 1
10
14.528200
20
53.543100
11
14.326782
21
56.073123
0
LINE
8
Layer 1
10
14.326782
20
56.073123
11
14.654510
21
58.524847
0
LINE
8
Layer 1
10
14.654510
20
58.524847
11
15.472125
21
60.844612
0
LINE
8
Layer 1
10
15.472125
20
60.844612
11
16.740366
21
62.978761
0
LINE
8
Layer 1
10
16.740366
20
62.978761
11
18.419974
21
64.873633
0
LINE
8
Layer 1
10
18.419974
20
64.873633
11
20.471689
21
66.475569
0
LINE
8
Layer 1
10
20.471689
20
66.475569
11
22.856251
21
67.730911
0
LINE
8
Layer 1
10
22.856251
20
67.730911
11
25.534400
21
68.586000
0
LINE
8
Layer 1
10
25.534400
20
68.586000
11
28.345493
21
68.974590
0
LINE
8
Layer 1
10
28.345493
20
68.974590
11
31.112913
21
68.886517
0
LINE
8
Layer 1
10
31.112913
20
68.886517
11
33.773433
21
68.352218
0
LINE
8
Layer 1
10
33.773433
20
68.352218
11
36.263826
21
67.402132
0
LINE
8
Layer 1
10
36.263826
20
67.402132
11
38.520867
21
66.066699
0
LINE
8
Layer 1
10
38.520867
20
66.066699
11
40.481327
21
64.376357
0
LINE
8
Layer 1
10
40.481327
20
64.376357
11
42.081980
21
62.361544
0
LINE
8
Layer 1
10
42.081980
20
62.361544
11
43.259600
21
60.052700
0
LINE
8
Layer 1
10
15.516600
20
55.522000
11
15.778571
21
52.934432
0
LINE
8
Layer 1
10
15.778571
20
52.934432
11
16.539236
21
50.446319
0
LINE
8
Layer 1
10
16.539236
20
50.446319
11
17.760726
21
48.149086
0
LINE
8
Layer 1
10
17.760726
20
48.149086
11
19.405170
21
46.134160
0
LINE
8
Layer 1
10
19.405170
20
46.134160
11
21.420096
21
44.489716
0
LINE
8
Layer 1
10
21.420096
20
44.489716
11
23.717328
21
43.268226
0
LINE
8
Layer 1
10
23.717328
20
43.268226
11
26.205438
21
42.507561
0
LINE
8
Layer 1
10
26.205438
20
42.507561
11
28.793000
21
42.245590
0
LINE
8
Layer 1
10
28.793000
20
42.245590
11
31.380568
21
42.507561
0
LINE
8
Layer 1
10
31.380568
20
42.507561
11
33.868681
21
43.268226
0
LINE
8
Layer 1
10
33.868681
20
43.268226
11
36.165914
21
44.489716
0
LINE
8
Layer 1
10
36.165914
20
44.489716
11
38.180840
21
46.134160
0
LINE
8
Layer 1
10
38.180840
20
46.134160
11
39.825284
21
48.149086
0
LINE
8
Layer 1
10
39.825284
20
48.149086
11
41.046774
21
50.446319
0
LINE
8
Layer 1
10
41.046774
20
50.446319
11
41.807439
21
52.934432
0
LINE
8
Layer 1
10
41.807439
20
52.934432
11
42.069410
21
55.522000
0
LINE
8
Layer 1
10
42.069410
20
55.522000
11
41.807439
21
58.109564
0
LINE
8
Layer 1
10
41.807439
20
58.109564
11
41.046774
21
60.597677
0
LINE
8
Layer 1
10
41.046774
20
60.597677
11
39.825284
21
62.894912
0
LINE
8
Layer 1
10
39.825284
20
62.894912
11
38.180840
21
64.909840
0
LINE
8
Layer 1
10
38.180840
20
64.909840
11
36.165914
21
66.554284
0
LINE
8
Layer 1
10
36.165914
20
66.554284
11
33.868681
21
67.775774
0
LINE
8
Layer 1
10
33.868681
20
67.775774
11
31.380568
21
68.536439
0
LINE
8
Layer 1
10
31.380568
20
68.536439
11
28.793000
21
68.798410
0
LINE
8
Layer 1
10
28.793000
20
68.798410
11
26.205436
21
68.536439
0
LINE
8
Layer 1
10
26.205436
20
68.536439
11
23.717324
21
67.775774
0
LINE
8
Layer 1
10
23.717324
20
67.775774
11
21.420092
21
66.554284
0
LINE
8
Layer 1
10
21.420092
20
66.554284
11
19.405170
21
64.909840
0
LINE
8
Layer 1
10
19.405170
20
64.909840
11
17.760726
21
62.894914
0
LINE
8
Layer 1
10
17.760726
20
62.894914
11
16.539236
21
60.597681
0
LINE
8
Layer 1
10
16.539236
20
60.597681
11
15.778571
21
58.109568
0
LINE
8
Layer 1
10
15.778571
20
58.109568
11
15.516600
21
55.522000
0
LINE
8
Layer 1
10
15.516600
20
55.522000
11
15.516600
21
55.522000
0
LINE
8
Layer 1
10
15.516600
20
55.522000
11
42.054800
21
55.495386
0
LINE
8
Layer 1
10
28.862100
20
55.511800
11
28.866474
21
42.621400
0
LINE
8
Layer 1
10
16.856600
20
61.138800
11
40.748800
21
61.145218
0
LINE
8
Layer 1
10
16.979700
20
49.671700
11
40.592100
21
49.626333
 0 
ENDSEC
 0 
EOF