  0
SECTION
  2
HEADER
  9
$ACADVER
  1
AC1014
  9
$ACADMAINTVER
 70
     9
  9
$DWGCODEPAGE
  3
ANSI_1252
  9
$INSBASE
 10
0.0
 20
0.0
 30
0.0
  9
$EXTMIN
 10
1.000000000000000E+20
 20
1.000000000000000E+20
 30
1.000000000000000E+20
  9
$EXTMAX
 10
-1.000000000000000E+20
 20
-1.000000000000000E+20
 30
-1.000000000000000E+20
  9
$LIMMIN
 10
0.0
 20
0.0
  9
$LIMMAX
 10
12.0
 20
9.0
  9
$ORTHOMODE
 70
     0
  9
$REGENMODE
 70
     1
  9
$FILLMODE
 70
     1
  9
$QTEXTMODE
 70
     0
  9
$MIRRTEXT
 70
     1
  9
$DRAGMODE
 70
     2
  9
$LTSCALE
 40
1.0
  9
$OSMODE
 70
    37
  9
$ATTMODE
 70
     1
  9
$TEXTSIZE
 40
0.2
  9
$TRACEWID
 40
0.05
  9
$TEXTSTYLE
  7
STANDARD
  9
$CLAYER
  8
0
  9
$CELTYPE
  6
BYLAYER
  9
$CECOLOR
 62
   256
  9
$CELTSCALE
 40
1.0
  9
$DELOBJ
 70
     1
  9
$DISPSILH
 70
     0
  9
$DIMSCALE
 40
1.0
  9
$DIMASZ
 40
0.18
  9
$DIMEXO
 40
0.0625
  9
$DIMDLI
 40
0.38
  9
$DIMRND
 40
0.0
  9
$DIMDLE
 40
0.0
  9
$DIMEXE
 40
0.18
  9
$DIMTP
 40
0.0
  9
$DIMTM
 40
0.0
  9
$DIMTXT
 40
0.18
  9
$DIMCEN
 40
0.09
  9
$DIMTSZ
 40
0.0
  9
$DIMTOL
 70
     0
  9
$DIMLIM
 70
     0
  9
$DIMTIH
 70
     1
  9
$DIMTOH
 70
     1
  9
$DIMSE1
 70
     0
  9
$DIMSE2
 70
     0
  9
$DIMTAD
 70
     0
  9
$DIMZIN
 70
     0
  9
$DIMBLK
  1

  9
$DIMASO
 70
     1
  9
$DIMSHO
 70
     1
  9
$DIMPOST
  1

  9
$DIMAPOST
  1

  9
$DIMALT
 70
     0
  9
$DIMALTD
 70
     2
  9
$DIMALTF
 40
25.4
  9
$DIMLFAC
 40
1.0
  9
$DIMTOFL
 70
     0
  9
$DIMTVP
 40
0.0
  9
$DIMTIX
 70
     0
  9
$DIMSOXD
 70
     0
  9
$DIMSAH
 70
     0
  9
$DIMBLK1
  1

  9
$DIMBLK2
  1

  9
$DIMSTYLE
  2
STANDARD
  9
$DIMCLRD
 70
     0
  9
$DIMCLRE
 70
     0
  9
$DIMCLRT
 70
     0
  9
$DIMTFAC
 40
1.0
  9
$DIMGAP
 40
0.09
  9
$DIMJUST
 70
     0
  9
$DIMSD1
 70
     0
  9
$DIMSD2
 70
     0
  9
$DIMTOLJ
 70
     1
  9
$DIMTZIN
 70
     0
  9
$DIMALTZ
 70
     0
  9
$DIMALTTZ
 70
     0
  9
$DIMFIT
 70
     3
  9
$DIMUPT
 70
     0
  9
$DIMUNIT
 70
     2
  9
$DIMDEC
 70
     4
  9
$DIMTDEC
 70
     4
  9
$DIMALTU
 70
     2
  9
$DIMALTTD
 70
     2
  9
$DIMTXSTY
  7
STANDARD
  9
$DIMAUNIT
 70
     0
  9
$LUNITS
 70
     2
  9
$LUPREC
 70
     4
  9
$SKETCHINC
 40
0.1
  9
$FILLETRAD
 40
0.0
  9
$AUNITS
 70
     0
  9
$AUPREC
 70
     0
  9
$MENU
  1
.
  9
$ELEVATION
 40
0.0
  9
$PELEVATION
 40
0.0
  9
$THICKNESS
 40
0.0
  9
$LIMCHECK
 70
     0
  9
$CHAMFERA
 40
0.0
  9
$CHAMFERB
 40
0.0
  9
$CHAMFERC
 40
0.0
  9
$CHAMFERD
 40
0.0
  9
$SKPOLY
 70
     0
  9
$TDCREATE
 40
2459678.687277384
  9
$TDUPDATE
 40
2459678.687277477
  9
$TDINDWG
 40
0.0000000116
  9
$TDUSRTIMER
 40
0.0000000116
  9
$USRTIMER
 70
     1
  9
$ANGBASE
 50
0.0
  9
$ANGDIR
 70
     0
  9
$PDMODE
 70
     0
  9
$PDSIZE
 40
0.0
  9
$PLINEWID
 40
0.0
  9
$COORDS
 70
     1
  9
$SPLFRAME
 70
     0
  9
$SPLINETYPE
 70
     6
  9
$SPLINESEGS
 70
     8
  9
$ATTDIA
 70
     0
  9
$ATTREQ
 70
     1
  9
$HANDLING
 70
     1
  9
$HANDSEED
  5
151
  9
$SURFTAB1
 70
     6
  9
$SURFTAB2
 70
     6
  9
$SURFTYPE
 70
     6
  9
$SURFU
 70
     6
  9
$SURFV
 70
     6
  9
$UCSNAME
  2

  9
$UCSORG
 10
0.0
 20
0.0
 30
0.0
  9
$UCSXDIR
 10
1.0
 20
0.0
 30
0.0
  9
$UCSYDIR
 10
0.0
 20
1.0
 30
0.0
  9
$PUCSNAME
  2

  9
$PUCSORG
 10
0.0
 20
0.0
 30
0.0
  9
$PUCSXDIR
 10
1.0
 20
0.0
 30
0.0
  9
$PUCSYDIR
 10
0.0
 20
1.0
 30
0.0
  9
$USERI1
 70
     0
  9
$USERI2
 70
     0
  9
$USERI3
 70
     0
  9
$USERI4
 70
     0
  9
$USERI5
 70
     0
  9
$USERR1
 40
0.0
  9
$USERR2
 40
0.0
  9
$USERR3
 40
0.0
  9
$USERR4
 40
0.0
  9
$USERR5
 40
0.0
  9
$WORLDVIEW
 70
     1
  9
$SHADEDGE
 70
     3
  9
$SHADEDIF
 70
    70
  9
$TILEMODE
 70
     1
  9
$MAXACTVP
 70
    64
  9
$PINSBASE
 10
0.0
 20
0.0
 30
0.0
  9
$PLIMCHECK
 70
     0
  9
$PEXTMIN
 10
1.000000000000000E+20
 20
1.000000000000000E+20
 30
1.000000000000000E+20
  9
$PEXTMAX
 10
-1.000000000000000E+20
 20
-1.000000000000000E+20
 30
-1.000000000000000E+20
  9
$PLIMMIN
 10
0.0
 20
0.0
  9
$PLIMMAX
 10
12.0
 20
9.0
  9
$UNITMODE
 70
     0
  9
$VISRETAIN
 70
     1
  9
$PLINEGEN
 70
     0
  9
$PSLTSCALE
 70
     1
  9
$TREEDEPTH
 70
  3020
  9
$PICKSTYLE
 70
     1
  9
$CMLSTYLE
  2
STANDARD
  9
$CMLJUST
 70
     0
  9
$CMLSCALE
 40
1.0
  9
$PROXYGRAPHICS
 70
     1
  9
$MEASUREMENT
 70
     1
  0
ENDSEC
  0
SECTION
  2
CLASSES
  0
CLASS
  1
ACDBDICTIONARYWDFLT
  2
AcDbDictionaryWithDefault
  3
ObjectDBX Classes
 90
        0
280
     0
281
     0
  0
CLASS
  1
VISUALSTYLE
  2
AcDbVisualStyle
  3
ObjectDBX Classes
 90
     4095
280
     0
281
     0
  0
CLASS
  1
MATERIAL
  2
AcDbMaterial
  3
ObjectDBX Classes
 90
     1153
280
     0
281
     0
  0
CLASS
  1
SCALE
  2
AcDbScale
  3
ObjectDBX Classes
 90
     1153
280
     0
281
     0
  0
CLASS
  1
TABLESTYLE
  2
AcDbTableStyle
  3
ObjectDBX Classes
 90
     4095
280
     0
281
     0
  0
CLASS
  1
MLEADERSTYLE
  2
AcDbMLeaderStyle
  3
ACDB_MLEADERSTYLE_CLASS
 90
     4095
280
     0
281
     0
  0
CLASS
  1
SUN
  2
AcDbSun
  3
SCENEOE
 90
     1153
280
     0
281
     0
  0
CLASS
  1
DICTIONARYVAR
  2
AcDbDictionaryVar
  3
ObjectDBX Classes
 90
        0
280
     0
281
     0
  0
CLASS
  1
XRECORD
  2
AcDbXrecord
  3
ObjectDBX Classes
 90
        0
280
     0
281
     0
  0
CLASS
  1
LWPOLYLINE
  2
AcDbPolyline
  3
ObjectDBX Classes
 90
        0
280
     0
281
     1
  0
CLASS
  1
HATCH
  2
AcDbHatch
  3
ObjectDBX Classes
 90
        0
280
     0
281
     1
  0
CLASS
  1
ACDBPLACEHOLDER
  2
AcDbPlaceHolder
  3
ObjectDBX Classes
 90
        0
280
     0
281
     0
  0
CLASS
  1
LAYOUT
  2
AcDbLayout
  3
ObjectDBX Classes
 90
        0
280
     0
281
     0
  0
ENDSEC
  0
SECTION
  2
TABLES
  0
TABLE
  2
VPORT
  5
8
102
{ACAD_XDICTIONARY
360
146
102
}
330
0
100
AcDbSymbolTable
 70
     1
  0
VPORT
  5
29
330
8
100
AcDbSymbolTableRecord
100
AcDbViewportTableRecord
  2
*ACTIVE
 70
     0
 10
0.0
 20
0.0
 11
1.0
 21
1.0
 12
0.0
 22
0.0
 13
0.0
 23
0.0
 14
0.5
 24
0.5
 15
0.5
 25
0.5
 16
0.0
 26
0.0
 36
1.0
 17
0.0
 27
0.0
 37
-1000.0
 40
44.31288501999269
 41
1.721649484536083
 42
50.0
 43
70.27125790356374
 44
89.88179121973147
 50
0.0
 51
0.0
 71
     0
 72
   100
 73
     1
 74
     3
 75
     0
 76
     0
 77
     0
 78
     0
  0
ENDTAB
  0
TABLE
  2
LTYPE
  5
5
330
0
100
AcDbSymbolTable
 70
     1
  0
LTYPE
  5
14
330
5
100
AcDbSymbolTableRecord
100
AcDbLinetypeTableRecord
  2
BYBLOCK
 70
     0
  3

 72
    65
 73
     0
 40
0.0
  0
LTYPE
  5
15
330
5
100
AcDbSymbolTableRecord
100
AcDbLinetypeTableRecord
  2
BYLAYER
 70
     0
  3

 72
    65
 73
     0
 40
0.0
  0
LTYPE
  5
16
330
5
100
AcDbSymbolTableRecord
100
AcDbLinetypeTableRecord
  2
CONTINUOUS
 70
     0
  3
Solid line
 72
    65
 73
     0
 40
0.0
  0
ENDTAB
  0
TABLE
  2
LAYER
  5
2
330
0
100
AcDbSymbolTable
 70
     3
  0
LAYER
  5
10
330
2
100
AcDbSymbolTableRecord
100
AcDbLayerTableRecord
  2
0
 70
     0
 62
     7
  6
CONTINUOUS
  0
LAYER
  5
5E
330
2
100
AcDbSymbolTableRecord
100
AcDbLayerTableRecord
  2
PROFILEEDGES
 70
     0
 62
     7
  6
CONTINUOUS
  0
LAYER
  5
5F
330
2
100
AcDbSymbolTableRecord
100
AcDbLayerTableRecord
  2
SECTIONCUTEDGES
 70
     0
 62
     7
  6
CONTINUOUS
  0
ENDTAB
  0
TABLE
  2
STYLE
  5
3
330
0
100
AcDbSymbolTable
 70
     1
  0
STYLE
  5
11
330
3
100
AcDbSymbolTableRecord
100
AcDbTextStyleTableRecord
  2
STANDARD
 70
     0
 40
0.0
 41
1.0
 50
0.0
 71
     0
 42
0.2
  3
txt
  4

  0
ENDTAB
  0
TABLE
  2
VIEW
  5
6
330
0
100
AcDbSymbolTable
 70
     0
  0
ENDTAB
  0
TABLE
  2
UCS
  5
7
330
0
100
AcDbSymbolTable
 70
     0
  0
ENDTAB
  0
TABLE
  2
APPID
  5
9
330
0
100
AcDbSymbolTable
 70
     2
  0
APPID
  5
12
330
9
100
AcDbSymbolTableRecord
100
AcDbRegAppTableRecord
  2
ACAD
 70
     0
  0
APPID
  5
150
330
9
100
AcDbSymbolTableRecord
100
AcDbRegAppTableRecord
  2
ACAD_MLEADERVER
 70
     0
  0
ENDTAB
  0
TABLE
  2
DIMSTYLE
  5
A
330
0
100
AcDbSymbolTable
 70
     1
  0
DIMSTYLE
105
27
330
A
100
AcDbSymbolTableRecord
100
AcDbDimStyleTableRecord
  2
STANDARD
 70
     0
  3

  4

  5

  6

  7

 40
1.0
 41
0.18
 42
0.0625
 43
0.38
 44
0.18
 45
0.0
 46
0.0
 47
0.0
 48
0.0
140
0.18
141
0.09
142
0.0
143
25.4
144
1.0
145
0.0
146
1.0
147
0.09
 71
     0
 72
     0
 73
     1
 74
     1
 75
     0
 76
     0
 77
     0
 78
     0
170
     0
171
     2
172
     0
173
     0
174
     0
175
     0
176
     0
177
     0
178
     0
270
     2
271
     4
272
     4
273
     2
274
     2
340
11
275
     0
280
     0
281
     0
282
     0
283
     1
284
     0
285
     0
286
     0
287
     3
288
     0
  0
ENDTAB
  0
TABLE
  2
BLOCK_RECORD
  5
1
330
0
100
AcDbSymbolTable
 70
     0
  0
BLOCK_RECORD
  5
1F
330
1
100
AcDbSymbolTableRecord
100
AcDbBlockTableRecord
  2
*MODEL_SPACE
  0
BLOCK_RECORD
  5
1B
330
1
100
AcDbSymbolTableRecord
100
AcDbBlockTableRecord
  2
*PAPER_SPACE
  0
ENDTAB
  0
ENDSEC
  0
SECTION
  2
BLOCKS
  0
BLOCK
  5
20
330
1F
100
AcDbEntity
  8
0
100
AcDbBlockBegin
  2
*MODEL_SPACE
 70
     0
 10
0.0
 20
0.0
 30
0.0
  3
*MODEL_SPACE
  1

  0
ENDBLK
  5
21
330
1F
100
AcDbEntity
  8
0
100
AcDbBlockEnd
  0
BLOCK
  5
1C
330
1B
100
AcDbEntity
 67
     1
  8
0
100
AcDbBlockBegin
  2
*PAPER_SPACE
 70
     0
 10
0.0
 20
0.0
 30
0.0
  3
*PAPER_SPACE
  1

  0
ENDBLK
  5
1D
330
1B
100
AcDbEntity
 67
     1
  8
0
100
AcDbBlockEnd
  0
ENDSEC
  0
SECTION
  2
ENTITIES
  0
LINE
  5
60
330
1F
100
AcDbEntity
  8
0
100
AcDbLine
 10
11.10785108410187
 20
18.2291290918315
 30
0.0
 11
11.10785108410191
 21
16.87588835062137
 31
0.0
  0
LINE
  5
61
330
1F
100
AcDbEntity
  8
0
100
AcDbLine
 10
-11.78447145470702
 20
18.21769947194048
 30
0.0
 11
-11.78447145470697
 21
19.34417738002944
 31
0.0
  0
LINE
  5
62
330
1F
100
AcDbEntity
  8
0
100
AcDbLine
 10
11.44469525860149
 20
18.22912909183149
 30
0.0
 11
11.10785108410187
 21
18.2291290918315
 31
0.0
  0
LINE
  5
63
330
1F
100
AcDbEntity
  8
0
100
AcDbLine
 10
11.10785108410191
 20
19.35682970950675
 30
0.0
 11
11.44469525860153
 21
19.35682970950678
 31
0.0
  0
LINE
  5
64
330
1F
100
AcDbEntity
  8
0
100
AcDbLine
 10
11.10785108410192
 20
21.04838063601981
 30
0.0
 11
11.10785108410191
 21
19.35682970950675
 31
0.0
  0
LINE
  5
65
330
1F
100
AcDbEntity
  8
0
100
AcDbLine
 10
-11.44616126940412
 20
21.04838063602051
 30
0.0
 11
11.10785108410192
 21
21.04838063601981
 31
0.0
  0
LINE
  5
66
330
1F
100
AcDbEntity
  8
0
100
AcDbLine
 10
-11.44616126940442
 20
19.3441773800294
 30
0.0
 11
-11.44616126940412
 21
21.04838063602051
 31
0.0
  0
LINE
  5
67
330
1F
100
AcDbEntity
  8
0
100
AcDbLine
 10
-11.78447145470697
 20
19.34417738002944
 30
0.0
 11
-11.44616126940442
 21
19.3441773800294
 31
0.0
  0
LINE
  5
68
330
1F
100
AcDbEntity
  8
0
100
AcDbLine
 10
-11.44616126940442
 20
18.21769947194047
 30
0.0
 11
-11.78447145470702
 21
18.21769947194048
 31
0.0
  0
LINE
  5
69
330
1F
100
AcDbEntity
  8
0
100
AcDbLine
 10
-11.44616126940443
 20
16.87588835062197
 30
0.0
 11
-11.44616126940442
 21
18.21769947194047
 31
0.0
  0
LINE
  5
6A
330
1F
100
AcDbEntity
  8
0
100
AcDbLine
 10
11.10785108410191
 20
16.87588835062137
 30
0.0
 11
-11.44616126940443
 21
16.87588835062197
 31
0.0
  0
LINE
  5
6B
330
1F
100
AcDbEntity
  8
0
100
AcDbLine
 10
0.0016035915300615
 20
19.47888938391828
 30
0.0
 11
0.0016035915299979
 21
18.44057295764611
 31
0.0
  0
LINE
  5
6C
330
1F
100
AcDbEntity
  8
0
100
AcDbLine
 10
0.0016035915299979
 20
18.44057295764611
 30
0.0
 11
-0.3367065937725771
 21
18.44057295764612
 31
0.0
  0
LINE
  5
6D
330
1F
100
AcDbEntity
  8
0
100
AcDbLine
 10
-0.3367065937725771
 20
18.44057295764612
 30
0.0
 11
-0.3367065937725131
 21
19.48369602899578
 31
0.0
  0
LINE
  5
6E
330
1F
100
AcDbEntity
  8
0
100
AcDbLine
 10
-0.3367065937725131
 20
19.48369602899578
 30
0.0
 11
-0.1675515011212257
 21
19.48369602899576
 31
0.0
  0
LINE
  5
6F
330
1F
100
AcDbEntity
  8
0
100
AcDbLine
 10
-0.1675515011212257
 20
19.48369602899576
 30
0.0
 11
0.0016035915300615
 21
19.48369602899575
 31
0.0
  0
LINE
  5
70
330
1F
100
AcDbEntity
  8
0
100
AcDbLine
 10
0.0016035915300615
 20
19.48369602899575
 30
0.0
 11
0.0016035915300615
 21
19.47888938391828
 31
0.0
  0
LINE
  5
71
330
1F
100
AcDbEntity
  8
0
100
AcDbLine
 10
0.0016035915300615
 20
19.47888938391828
 30
0.0
 11
-0.1675515011212257
 21
19.48369602899576
 31
0.0
  0
LINE
  5
72
330
1F
100
AcDbEntity
  8
0
100
AcDbLine
 10
11.44469525860153
 20
19.35682970950678
 30
0.0
 11
11.44469525860149
 21
18.22912909183149
 31
0.0
  0
LINE
  5
73
330
1F
100
AcDbEntity
  8
0
100
AcDbLine
 10
-15.16429153920524
 20
6.480620660462621
 30
0.0
 11
-15.16429153920525
 21
6.806755132834771
 31
0.0
  0
LINE
  5
74
330
1F
100
AcDbEntity
  8
0
100
AcDbLine
 10
-15.16429153920525
 20
6.806755132834771
 30
0.0
 11
-12.90937829917481
 21
6.806755132834911
 31
0.0
  0
LINE
  5
75
330
1F
100
AcDbEntity
  8
0
100
AcDbLine
 10
-15.16429153920387
 20
-16.41786449533953
 30
0.0
 11
-16.29174815921906
 21
-16.41786449533956
 31
0.0
  0
LINE
  5
76
330
1F
100
AcDbEntity
  8
0
100
AcDbLine
 10
-16.29174815922044
 20
6.480620660462494
 30
0.0
 11
-15.16429153920524
 21
6.480620660462621
 31
0.0
  0
LINE
  5
77
330
1F
100
AcDbEntity
  8
0
100
AcDbLine
 10
-16.29174815921906
 20
-16.41786449533956
 30
0.0
 11
-16.29174815922044
 21
6.480620660462494
 31
0.0
  0
LINE
  5
78
330
1F
100
AcDbEntity
  8
0
100
AcDbLine
 10
-15.16429153920388
 20
-16.09074327882804
 30
0.0
 11
-15.16429153920387
 21
-16.41786449533953
 31
0.0
  0
LINE
  5
79
330
1F
100
AcDbEntity
  8
0
100
AcDbLine
 10
-13.47310660918204
 20
0.7999564036544753
 30
0.0
 11
-14.60056322919727
 21
0.7999564036543624
 31
0.0
  0
LINE
  5
7A
330
1F
100
AcDbEntity
  8
0
100
AcDbLine
 10
-13.47310660918208
 20
1.154337721541896
 30
0.0
 11
-13.47310660918204
 21
0.7999564036544753
 31
0.0
  0
LINE
  5
7B
330
1F
100
AcDbEntity
  8
0
100
AcDbLine
 10
-14.60056322919731
 20
1.154337721541777
 30
0.0
 11
-13.47310660918208
 21
1.154337721541896
 31
0.0
  0
LINE
  5
7C
330
1F
100
AcDbEntity
  8
0
100
AcDbLine
 10
-14.60056322919727
 20
0.7999564036543624
 30
0.0
 11
-14.60056322919731
 21
1.154337721541777
 31
0.0
  0
LINE
  5
7D
330
1F
100
AcDbEntity
  8
0
100
AcDbLine
 10
-12.12015866516306
 20
-11.56980102927388
 30
0.0
 11
-12.12015866516293
 21
-13.83289801639854
 31
0.0
  0
LINE
  5
7E
330
1F
100
AcDbEntity
  8
0
100
AcDbLine
 10
-11.78192167915833
 20
-13.83289801639849
 30
0.0
 11
-11.78192167915818
 21
-16.41786449533932
 31
0.0
  0
LINE
  5
7F
330
1F
100
AcDbEntity
  8
0
100
AcDbLine
 10
-11.78192167915818
 20
-16.41786449533932
 30
0.0
 11
-12.90937829917342
 21
-16.41786449533943
 31
0.0
  0
LINE
  5
80
330
1F
100
AcDbEntity
  8
0
100
AcDbLine
 10
-12.90937829917342
 20
-16.41786449533943
 30
0.0
 11
-12.90937829917346
 21
-16.09074327882796
 31
0.0
  0
LINE
  5
81
330
1F
100
AcDbEntity
  8
0
100
AcDbLine
 10
-12.90937829917346
 20
-16.09074327882796
 30
0.0
 11
-15.16429153920388
 21
-16.09074327882804
 31
0.0
  0
LINE
  5
82
330
1F
100
AcDbEntity
  8
0
100
AcDbLine
 10
-14.60337502028331
 20
-4.254182631573566
 30
0.0
 11
-13.47591840026804
 21
-4.254182631573496
 31
0.0
  0
LINE
  5
83
330
1F
100
AcDbEntity
  8
0
100
AcDbLine
 10
-12.90937829917481
 20
6.806755132834911
 30
0.0
 11
-12.90937829917479
 21
6.480620660462761
 31
0.0
  0
LINE
  5
84
330
1F
100
AcDbEntity
  8
0
100
AcDbLine
 10
-14.60337502028329
 20
-4.57979649422789
 30
0.0
 11
-14.60337502028331
 21
-4.254182631573566
 31
0.0
  0
LINE
  5
85
330
1F
100
AcDbEntity
  8
0
100
AcDbLine
 10
-12.12015866516293
 20
-13.83289801639854
 30
0.0
 11
-11.78192167915833
 21
-13.83289801639849
 31
0.0
  0
LINE
  5
86
330
1F
100
AcDbEntity
  8
0
100
AcDbLine
 10
-13.47591840026805
 20
-4.581303848084969
 30
0.0
 11
-14.60337502028329
 21
-4.57979649422789
 31
0.0
  0
LINE
  5
87
330
1F
100
AcDbEntity
  8
0
100
AcDbLine
 10
-13.47591840026804
 20
-4.254182631573496
 30
0.0
 11
-13.47591840026805
 21
-4.581303848084969
 31
0.0
  0
LINE
  5
88
330
1F
100
AcDbEntity
  8
0
100
AcDbLine
 10
-12.90937829917479
 20
6.480620660462761
 30
0.0
 11
-11.78192167915955
 21
6.480620660462811
 31
0.0
  0
LINE
  5
89
330
1F
100
AcDbEntity
  8
0
100
AcDbLine
 10
-11.78192167915848
 20
-11.56980102927385
 30
0.0
 11
-12.12015866516306
 21
-11.56980102927388
 31
0.0
  0
LINE
  5
8A
330
1F
100
AcDbEntity
  8
0
100
AcDbLine
 10
-11.78192167915955
 20
6.480620660462811
 30
0.0
 11
-11.78192167915943
 21
4.214591650939267
 31
0.0
  0
LINE
  5
8B
330
1F
100
AcDbEntity
  8
0
100
AcDbLine
 10
-11.78192167915943
 20
4.214591650939267
 30
0.0
 11
-12.12015866516402
 21
4.214591650939241
 31
0.0
  0
LINE
  5
8C
330
1F
100
AcDbEntity
  8
0
100
AcDbLine
 10
-12.12015866516388
 20
1.959678410908791
 30
0.0
 11
-11.7819216791593
 21
1.959678410908822
 31
0.0
  0
LINE
  5
8D
330
1F
100
AcDbEntity
  8
0
100
AcDbLine
 10
-11.78192167915848
 20
-11.56980102927385
 30
0.0
 11
-11.7819216791593
 21
1.959678410908822
 31
0.0
  0
LINE
  5
8E
330
1F
100
AcDbEntity
  8
0
100
AcDbLine
 10
-12.12015866516402
 20
4.214591650939241
 30
0.0
 11
-12.12015866516388
 21
1.959678410908791
 31
0.0
  0
LINE
  5
8F
330
1F
100
AcDbEntity
  8
0
100
AcDbLine
 10
-13.4731066091814
 20
-10.05468022412389
 30
0.0
 11
-14.60056322919663
 21
-10.0531728702668
 31
0.0
  0
LINE
  5
90
330
1F
100
AcDbEntity
  8
0
100
AcDbLine
 10
-14.60056322919665
 20
-9.727559007612475
 30
0.0
 11
-13.47310660918141
 21
-9.727559007612404
 31
0.0
  0
LINE
  5
91
330
1F
100
AcDbEntity
  8
0
100
AcDbLine
 10
-13.47310660918141
 20
-9.727559007612404
 30
0.0
 11
-13.4731066091814
 21
-10.05468022412389
 31
0.0
  0
LINE
  5
92
330
1F
100
AcDbEntity
  8
0
100
AcDbLine
 10
-14.60056322919663
 20
-10.0531728702668
 30
0.0
 11
-14.60056322919665
 21
-9.727559007612475
 31
0.0
  0
LINE
  5
93
330
1F
100
AcDbEntity
  8
0
100
AcDbLine
 10
11.10785108410181
 20
13.49278649759598
 30
0.0
 11
11.10785108410179
 21
11.801235571083
 31
0.0
  0
LINE
  5
94
330
1F
100
AcDbEntity
  8
0
100
AcDbLine
 10
11.44469525860143
 20
14.62048711527128
 30
0.0
 11
11.44469525860143
 21
13.49278649759598
 31
0.0
  0
LINE
  5
95
330
1F
100
AcDbEntity
  8
0
100
AcDbLine
 10
-11.78447145470704
 20
13.49278649759603
 30
0.0
 11
-11.78447145470704
 21
14.62048711527135
 31
0.0
  0
LINE
  5
96
330
1F
100
AcDbEntity
  8
0
100
AcDbLine
 10
11.44469525860143
 20
13.49278649759598
 30
0.0
 11
11.10785108410181
 21
13.49278649759598
 31
0.0
  0
LINE
  5
97
330
1F
100
AcDbEntity
  8
0
100
AcDbLine
 10
11.10785108410181
 20
14.62048711527128
 30
0.0
 11
11.44469525860143
 21
14.62048711527128
 31
0.0
  0
LINE
  5
98
330
1F
100
AcDbEntity
  8
0
100
AcDbLine
 10
11.10785108410179
 20
16.31203804178423
 30
0.0
 11
11.10785108410181
 21
14.62048711527128
 31
0.0
  0
LINE
  5
99
330
1F
100
AcDbEntity
  8
0
100
AcDbLine
 10
-11.44616126940444
 20
16.31203804178432
 30
0.0
 11
11.10785108410179
 21
16.31203804178423
 31
0.0
  0
LINE
  5
9A
330
1F
100
AcDbEntity
  8
0
100
AcDbLine
 10
-11.44616126940446
 20
14.62048711527135
 30
0.0
 11
-11.44616126940444
 21
16.31203804178432
 31
0.0
  0
LINE
  5
9B
330
1F
100
AcDbEntity
  8
0
100
AcDbLine
 10
-11.78447145470704
 20
14.62048711527135
 30
0.0
 11
-11.44616126940446
 21
14.62048711527135
 31
0.0
  0
LINE
  5
9C
330
1F
100
AcDbEntity
  8
0
100
AcDbLine
 10
-11.44616126940446
 20
13.49278649759603
 30
0.0
 11
-11.78447145470704
 21
13.49278649759603
 31
0.0
  0
LINE
  5
9D
330
1F
100
AcDbEntity
  8
0
100
AcDbLine
 10
-11.44616126940444
 20
11.80123557108306
 30
0.0
 11
-11.44616126940446
 21
13.49278649759603
 31
0.0
  0
LINE
  5
9E
330
1F
100
AcDbEntity
  8
0
100
AcDbLine
 10
11.10785108410179
 20
11.801235571083
 30
0.0
 11
-11.44616126940444
 21
11.80123557108306
 31
0.0
  0
LINE
  5
9F
330
1F
100
AcDbEntity
  8
0
100
AcDbLine
 10
16.02866439922559
 20
7.40417493920207
 30
0.0
 11
16.02866439922576
 21
18.9039404240344
 31
0.0
  0
LINE
  5
A0
330
1F
100
AcDbEntity
  8
0
100
AcDbLine
 10
14.53944476893985
 20
7.059181974657116
 30
0.0
 11
14.53944476893985
 21
7.404174939202055
 31
0.0
  0
LINE
  5
A1
330
1F
100
AcDbEntity
  8
0
100
AcDbLine
 10
13.41201678023079
 20
7.404174939202067
 30
0.0
 11
13.41201678023079
 21
7.059181974657124
 31
0.0
  0
LINE
  5
A2
330
1F
100
AcDbEntity
  8
0
100
AcDbLine
 10
14.68702509266198
 20
18.90394042403437
 30
0.0
 11
14.68702509266201
 21
19.2489333885794
 31
0.0
  0
LINE
  5
A3
330
1F
100
AcDbEntity
  8
0
100
AcDbLine
 10
14.68702509266201
 20
19.2489333885794
 30
0.0
 11
13.34538578609824
 21
19.24893338857941
 31
0.0
  0
LINE
  5
A4
330
1F
100
AcDbEntity
  8
0
100
AcDbLine
 10
13.34538578609824
 20
19.24893338857941
 30
0.0
 11
13.34538578609822
 21
18.90394042403438
 31
0.0
  0
LINE
  5
A5
330
1F
100
AcDbEntity
  8
0
100
AcDbLine
 10
12.00374647953446
 20
18.9039404240344
 30
0.0
 11
12.00374647953434
 21
7.404174939202136
 31
0.0
  0
LINE
  5
A6
330
1F
100
AcDbEntity
  8
0
100
AcDbLine
 10
13.41201678023079
 20
7.059181974657124
 30
0.0
 11
14.53944476893985
 21
7.059181974657116
 31
0.0
  0
LINE
  5
A7
330
1F
100
AcDbEntity
  8
0
100
AcDbLine
 10
12.00374647953434
 20
7.404174939202136
 30
0.0
 11
13.41201678023079
 21
7.404174939202067
 31
0.0
  0
LINE
  5
A8
330
1F
100
AcDbEntity
  8
0
100
AcDbLine
 10
14.53944476893985
 20
7.404174939202055
 30
0.0
 11
16.02866439922559
 21
7.40417493920207
 31
0.0
  0
LINE
  5
A9
330
1F
100
AcDbEntity
  8
0
100
AcDbLine
 10
16.02866439922576
 20
18.9039404240344
 30
0.0
 11
14.68702509266198
 21
18.90394042403437
 31
0.0
  0
LINE
  5
AA
330
1F
100
AcDbEntity
  8
0
100
AcDbLine
 10
13.34538578609822
 20
18.90394042403438
 30
0.0
 11
12.00374647953446
 21
18.9039404240344
 31
0.0
  0
LINE
  5
AB
330
1F
100
AcDbEntity
  8
0
100
AcDbLine
 10
11.21819336915216
 20
1.951494663814574
 30
0.0
 11
11.21819336915216
 21
-11.57798477636801
 31
0.0
  0
LINE
  5
AC
330
1F
100
AcDbEntity
  8
0
100
AcDbLine
 10
11.55643035515673
 20
-13.83289801639845
 30
0.0
 11
11.21819336915216
 21
-13.83289801639845
 31
0.0
  0
LINE
  5
AD
330
1F
100
AcDbEntity
  8
0
100
AcDbLine
 10
11.55643035515672
 20
4.206407903845007
 30
0.0
 11
11.55643035515672
 21
1.951494663814574
 31
0.0
  0
LINE
  5
AE
330
1F
100
AcDbEntity
  8
0
100
AcDbLine
 10
11.55643035515673
 20
-11.57798477636801
 30
0.0
 11
11.55643035515673
 21
-13.83289801639845
 31
0.0
  0
LINE
  5
AF
330
1F
100
AcDbEntity
  8
0
100
AcDbLine
 10
11.21819336915216
 20
-13.83289801639845
 30
0.0
 11
11.21819336915217
 21
-16.08781125642887
 31
0.0
  0
LINE
  5
B0
330
1F
100
AcDbEntity
  8
0
100
AcDbLine
 10
11.21819336915216
 20
-11.57798477636801
 30
0.0
 11
11.55643035515673
 21
-11.57798477636801
 31
0.0
  0
LINE
  5
B1
330
1F
100
AcDbEntity
  8
0
100
AcDbLine
 10
11.21819336915216
 20
4.206407903845007
 30
0.0
 11
11.55643035515672
 21
4.206407903845007
 31
0.0
  0
LINE
  5
B2
330
1F
100
AcDbEntity
  8
0
100
AcDbLine
 10
6.708366889091308
 20
-16.08781125642889
 30
0.0
 11
-6.821112551091308
 21
-16.08781125642894
 31
0.0
  0
LINE
  5
B3
330
1F
100
AcDbEntity
  8
0
100
AcDbLine
 10
8.96328012912174
 20
-16.42604824243345
 30
0.0
 11
6.708366889091308
 21
-16.42604824243345
 31
0.0
  0
LINE
  5
B4
330
1F
100
AcDbEntity
  8
0
100
AcDbLine
 10
6.708366889091308
 20
-16.42604824243345
 30
0.0
 11
6.708366889091308
 21
-16.08781125642889
 31
0.0
  0
LINE
  5
B5
330
1F
100
AcDbEntity
  8
0
100
AcDbLine
 10
11.21819336915217
 20
-16.08781125642887
 30
0.0
 11
8.96328012912174
 21
-16.08781125642888
 31
0.0
  0
LINE
  5
B6
330
1F
100
AcDbEntity
  8
0
100
AcDbLine
 10
8.96328012912174
 20
-16.08781125642888
 30
0.0
 11
8.96328012912174
 21
-16.42604824243345
 31
0.0
  0
LINE
  5
B7
330
1F
100
AcDbEntity
  8
0
100
AcDbLine
 10
11.21819336915217
 20
6.461321143875436
 30
0.0
 11
11.21819336915216
 21
4.206407903845007
 31
0.0
  0
LINE
  5
B8
330
1F
100
AcDbEntity
  8
0
100
AcDbLine
 10
8.96328012912174
 20
6.461321143875435
 30
0.0
 11
11.21819336915217
 21
6.461321143875436
 31
0.0
  0
LINE
  5
B9
330
1F
100
AcDbEntity
  8
0
100
AcDbLine
 10
6.708366889091308
 20
6.461321143875438
 30
0.0
 11
6.708366889091308
 21
6.799558129879997
 31
0.0
  0
LINE
  5
BA
330
1F
100
AcDbEntity
  8
0
100
AcDbLine
 10
-11.33093903115237
 20
4.206407903845027
 30
0.0
 11
-11.33093903115219
 21
6.461321143875468
 31
0.0
  0
LINE
  5
BB
330
1F
100
AcDbEntity
  8
0
100
AcDbLine
 10
-11.66917601715681
 20
-11.57798477636807
 30
0.0
 11
-11.33093903115222
 21
-11.57798477636807
 31
0.0
  0
LINE
  5
BC
330
1F
100
AcDbEntity
  8
0
100
AcDbLine
 10
-6.821112551091308
 20
-16.42604824243351
 30
0.0
 11
-9.076025791121749
 21
-16.42604824243351
 31
0.0
  0
LINE
  5
BD
330
1F
100
AcDbEntity
  8
0
100
AcDbLine
 10
-9.076025791121749
 20
-16.42604824243351
 30
0.0
 11
-9.076025791121749
 21
-16.08781125642895
 31
0.0
  0
LINE
  5
BE
330
1F
100
AcDbEntity
  8
0
100
AcDbLine
 10
-6.821112551091308
 20
-16.08781125642894
 30
0.0
 11
-6.821112551091308
 21
-16.42604824243351
 31
0.0
  0
LINE
  5
BF
330
1F
100
AcDbEntity
  8
0
100
AcDbLine
 10
-11.66917601715681
 20
-13.83289801639851
 30
0.0
 11
-11.66917601715681
 21
-11.57798477636807
 31
0.0
  0
LINE
  5
C0
330
1F
100
AcDbEntity
  8
0
100
AcDbLine
 10
-11.33093903115219
 20
-16.08781125642895
 30
0.0
 11
-11.33093903115222
 21
-13.83289801639851
 31
0.0
  0
LINE
  5
C1
330
1F
100
AcDbEntity
  8
0
100
AcDbLine
 10
-11.66917601715695
 20
4.206407903845027
 30
0.0
 11
-11.33093903115237
 21
4.206407903845027
 31
0.0
  0
LINE
  5
C2
330
1F
100
AcDbEntity
  8
0
100
AcDbLine
 10
-11.33093903115222
 20
-11.57798477636807
 30
0.0
 11
-11.33093903115237
 21
1.951494663814584
 31
0.0
  0
LINE
  5
C3
330
1F
100
AcDbEntity
  8
0
100
AcDbLine
 10
8.96328012912174
 20
6.799558129879995
 30
0.0
 11
8.96328012912174
 21
6.461321143875435
 31
0.0
  0
LINE
  5
C4
330
1F
100
AcDbEntity
  8
0
100
AcDbLine
 10
-11.33093903115222
 20
-13.83289801639851
 30
0.0
 11
-11.66917601715681
 21
-13.83289801639851
 31
0.0
  0
LINE
  5
C5
330
1F
100
AcDbEntity
  8
0
100
AcDbLine
 10
-11.33093903115219
 20
6.461321143875468
 30
0.0
 11
-9.076025791121749
 21
6.461321143875471
 31
0.0
  0
LINE
  5
C6
330
1F
100
AcDbEntity
  8
0
100
AcDbLine
 10
-9.076025791121749
 20
-16.08781125642895
 30
0.0
 11
-11.33093903115219
 21
-16.08781125642895
 31
0.0
  0
LINE
  5
C7
330
1F
100
AcDbEntity
  8
0
100
AcDbLine
 10
-11.33093903115237
 20
1.951494663814584
 30
0.0
 11
-11.66917601715695
 21
1.951494663814584
 31
0.0
  0
LINE
  5
C8
330
1F
100
AcDbEntity
  8
0
100
AcDbLine
 10
-11.66917601715695
 20
1.951494663814584
 30
0.0
 11
-11.66917601715695
 21
4.206407903845027
 31
0.0
  0
LINE
  5
C9
330
1F
100
AcDbEntity
  8
0
100
AcDbLine
 10
-9.076025791121749
 20
6.461321143875471
 30
0.0
 11
-9.076025791121749
 21
6.79955812988003
 31
0.0
  0
LINE
  5
CA
330
1F
100
AcDbEntity
  8
0
100
AcDbLine
 10
-9.076025791121749
 20
6.79955812988003
 30
0.0
 11
-6.821112551091308
 21
6.799558129880028
 31
0.0
  0
LINE
  5
CB
330
1F
100
AcDbEntity
  8
0
100
AcDbLine
 10
-6.821112551091308
 20
6.799558129880028
 30
0.0
 11
-6.821112551091308
 21
6.461321143875467
 31
0.0
  0
LINE
  5
CC
330
1F
100
AcDbEntity
  8
0
100
AcDbLine
 10
6.708366889091308
 20
6.799558129879997
 30
0.0
 11
8.96328012912174
 21
6.799558129879995
 31
0.0
  0
LINE
  5
CD
330
1F
100
AcDbEntity
  8
0
100
AcDbLine
 10
-6.821112551091308
 20
6.461321143875467
 30
0.0
 11
6.708366889091308
 21
6.461321143875438
 31
0.0
  0
LINE
  5
CE
330
1F
100
AcDbEntity
  8
0
100
AcDbLine
 10
11.55643035515672
 20
1.951494663814574
 30
0.0
 11
11.21819336915216
 21
1.951494663814574
 31
0.0
  0
LINE
  5
CF
330
1F
100
AcDbEntity
  8
0
100
AcDbLine
 10
-9.076025791121598
 20
-16.53879390443556
 30
0.0
 11
-9.076025791121587
 21
-16.8770308904401
 31
0.0
  0
LINE
  5
D0
330
1F
100
AcDbEntity
  8
0
100
AcDbLine
 10
0.1146420187621521
 20
-19.56869364832087
 30
0.0
 11
-0.2435845817866214
 21
-19.56869364832088
 31
0.0
  0
LINE
  5
D1
330
1F
100
AcDbEntity
  8
0
100
AcDbLine
 10
0.1163003457254245
 20
-18.41868789590535
 30
0.0
 11
0.1146420187621521
 21
-19.56869364832087
 31
0.0
  0
LINE
  5
D2
330
1F
100
AcDbEntity
  8
0
100
AcDbLine
 10
-0.2435845817866543
 20
-18.41868789590536
 30
0.0
 11
0.1163003457254245
 21
-18.41868789590535
 31
0.0
  0
LINE
  5
D3
330
1F
100
AcDbEntity
  8
0
100
AcDbLine
 10
11.5564303551569
 20
-21.04862038449569
 30
0.0
 11
11.55643035515681
 21
-19.92116376448047
 31
0.0
  0
LINE
  5
D4
330
1F
100
AcDbEntity
  8
0
100
AcDbLine
 10
-11.66917601715673
 20
-17.66625052445091
 30
0.0
 11
-11.34205480064528
 21
-17.66625052445089
 31
0.0
  0
LINE
  5
D5
330
1F
100
AcDbEntity
  8
0
100
AcDbLine
 10
-11.66917601715664
 20
-19.9211637644813
 30
0.0
 11
-11.66917601715673
 21
-17.66625052445091
 31
0.0
  0
LINE
  5
D6
330
1F
100
AcDbEntity
  8
0
100
AcDbLine
 10
11.5564303551569
 20
-21.04862038449569
 30
0.0
 11
-11.34205480064517
 21
-21.04862038449652
 31
0.0
  0
LINE
  5
D7
330
1F
100
AcDbEntity
  8
0
100
AcDbLine
 10
6.708366889091283
 20
-16.87703089043955
 30
0.0
 11
6.708366889091279
 21
-16.538793904435
 31
0.0
  0
LINE
  5
D8
330
1F
100
AcDbEntity
  8
0
100
AcDbLine
 10
8.963280129121623
 20
-16.87703089043946
 30
0.0
 11
6.708366889091283
 21
-16.87703089043955
 31
0.0
  0
LINE
  5
D9
330
1F
100
AcDbEntity
  8
0
100
AcDbLine
 10
-9.076025791121587
 20
-16.8770308904401
 30
0.0
 11
-6.821112551091256
 21
-16.87703089044003
 31
0.0
  0
LINE
  5
DA
330
1F
100
AcDbEntity
  8
0
100
AcDbLine
 10
-6.821112551091256
 20
-16.87703089044003
 30
0.0
 11
-6.821112551091282
 21
-16.53879390443548
 31
0.0
  0
LINE
  5
DB
330
1F
100
AcDbEntity
  8
0
100
AcDbLine
 10
8.963280129121623
 20
-16.53879390443493
 30
0.0
 11
8.963280129121623
 21
-16.87703089043946
 31
0.0
  0
LINE
  5
DC
330
1F
100
AcDbEntity
  8
0
100
AcDbLine
 10
11.55643035515671
 20
-16.53879390443483
 30
0.0
 11
8.963280129121623
 21
-16.53879390443493
 31
0.0
  0
LINE
  5
DD
330
1F
100
AcDbEntity
  8
0
100
AcDbLine
 10
11.55643035515674
 20
-17.66625052445007
 30
0.0
 11
11.55643035515671
 21
-16.53879390443483
 31
0.0
  0
LINE
  5
DE
330
1F
100
AcDbEntity
  8
0
100
AcDbLine
 10
11.22930913864529
 20
-17.66625052445008
 30
0.0
 11
11.55643035515674
 21
-17.66625052445007
 31
0.0
  0
LINE
  5
DF
330
1F
100
AcDbEntity
  8
0
100
AcDbLine
 10
-11.34205480064517
 20
-21.04862038449652
 30
0.0
 11
-11.3420548006452
 21
-19.9211637644813
 31
0.0
  0
LINE
  5
E0
330
1F
100
AcDbEntity
  8
0
100
AcDbLine
 10
-11.3420548006452
 20
-19.9211637644813
 30
0.0
 11
-11.66917601715664
 21
-19.9211637644813
 31
0.0
  0
LINE
  5
E1
330
1F
100
AcDbEntity
  8
0
100
AcDbLine
 10
11.22930913864536
 20
-19.92116376448048
 30
0.0
 11
11.22930913864529
 21
-17.66625052445008
 31
0.0
  0
LINE
  5
E2
330
1F
100
AcDbEntity
  8
0
100
AcDbLine
 10
11.55643035515681
 20
-19.92116376448047
 30
0.0
 11
11.22930913864536
 21
-19.92116376448048
 31
0.0
  0
LINE
  5
E3
330
1F
100
AcDbEntity
  8
0
100
AcDbLine
 10
-0.2435845817866214
 20
-19.56869364832088
 30
0.0
 11
-0.2435845817866543
 21
-18.41868789590536
 31
0.0
  0
LINE
  5
E4
330
1F
100
AcDbEntity
  8
0
100
AcDbLine
 10
6.708366889091279
 20
-16.538793904435
 30
0.0
 11
-6.821112551091282
 21
-16.53879390443548
 31
0.0
  0
LINE
  5
E5
330
1F
100
AcDbEntity
  8
0
100
AcDbLine
 10
-11.34205480064528
 20
-17.66625052445089
 30
0.0
 11
-11.34205480064533
 21
-16.53879390443564
 31
0.0
  0
LINE
  5
E6
330
1F
100
AcDbEntity
  8
0
100
AcDbLine
 10
-11.34205480064533
 20
-16.53879390443564
 30
0.0
 11
-9.076025791121598
 21
-16.53879390443556
 31
0.0
  0
LINE
  5
E7
330
1F
100
AcDbEntity
  8
0
100
AcDbLine
 10
8.955315343672451
 20
6.912303791880656
 30
0.0
 11
8.955315343672442
 21
7.250540777885221
 31
0.0
  0
LINE
  5
E8
330
1F
100
AcDbEntity
  8
0
100
AcDbLine
 10
-11.67714080260731
 20
6.9123037918817
 30
0.0
 11
-9.076025791121749
 21
6.912303791881573
 31
0.0
  0
LINE
  5
E9
330
1F
100
AcDbEntity
  8
0
100
AcDbLine
 10
-11.67714080260691
 20
11.42213027194244
 30
0.0
 11
-11.67714080260701
 21
10.29467365192727
 31
0.0
  0
LINE
  5
EA
330
1F
100
AcDbEntity
  8
0
100
AcDbLine
 10
6.700402103641894
 20
7.250540777885337
 30
0.0
 11
6.700402103641894
 21
6.912303791880773
 31
0.0
  0
LINE
  5
EB
330
1F
100
AcDbEntity
  8
0
100
AcDbLine
 10
-6.814186650700253
 20
6.912303791881456
 30
0.0
 11
6.700402103641894
 21
6.912303791880773
 31
0.0
  0
LINE
  5
EC
330
1F
100
AcDbEntity
  8
0
100
AcDbLine
 10
-11.67714080260691
 20
11.42213027194244
 30
0.0
 11
11.21929983833838
 21
11.42213027194165
 31
0.0
  0
LINE
  5
ED
330
1F
100
AcDbEntity
  8
0
100
AcDbLine
 10
-9.076025791121749
 20
6.912303791881573
 30
0.0
 11
-9.07602579112171
 21
7.250540777886123
 31
0.0
  0
LINE
  5
EE
330
1F
100
AcDbEntity
  8
0
100
AcDbLine
 10
-9.07602579112171
 20
7.250540777886123
 30
0.0
 11
-6.814186650700268
 21
7.250540777886006
 31
0.0
  0
LINE
  5
EF
330
1F
100
AcDbEntity
  8
0
100
AcDbLine
 10
11.21929983833838
 20
11.42213027194165
 30
0.0
 11
11.21929983833844
 21
10.29467365192639
 31
0.0
  0
LINE
  5
F0
330
1F
100
AcDbEntity
  8
0
100
AcDbLine
 10
-11.34901484279957
 20
8.039760411896918
 30
0.0
 11
-11.67714080260717
 21
8.039760411896928
 31
0.0
  0
LINE
  5
F1
330
1F
100
AcDbEntity
  8
0
100
AcDbLine
 10
8.955315343672442
 20
7.250540777885221
 30
0.0
 11
6.700402103641894
 21
7.250540777885337
 31
0.0
  0
LINE
  5
F2
330
1F
100
AcDbEntity
  8
0
100
AcDbLine
 10
11.54846556970779
 20
10.2946736519263
 30
0.0
 11
11.54846556970768
 21
8.039760411895822
 31
0.0
  0
LINE
  5
F3
330
1F
100
AcDbEntity
  8
0
100
AcDbLine
 10
11.21929983833826
 20
8.039760411895843
 30
0.0
 11
11.21929983833815
 21
6.912303791880541
 31
0.0
  0
LINE
  5
F4
330
1F
100
AcDbEntity
  8
0
100
AcDbLine
 10
-6.814186650700268
 20
7.250540777886006
 30
0.0
 11
-6.814186650700253
 21
6.912303791881456
 31
0.0
  0
LINE
  5
F5
330
1F
100
AcDbEntity
  8
0
100
AcDbLine
 10
-11.34901484279949
 20
10.29467365192725
 30
0.0
 11
-11.34901484279957
 21
8.039760411896918
 31
0.0
  0
LINE
  5
F6
330
1F
100
AcDbEntity
  8
0
100
AcDbLine
 10
11.54846556970768
 20
8.039760411895822
 30
0.0
 11
11.21929983833826
 21
8.039760411895843
 31
0.0
  0
LINE
  5
F7
330
1F
100
AcDbEntity
  8
0
100
AcDbLine
 10
11.21929983833815
 20
6.912303791880541
 30
0.0
 11
8.955315343672451
 21
6.912303791880656
 31
0.0
  0
LINE
  5
F8
330
1F
100
AcDbEntity
  8
0
100
AcDbLine
 10
-11.67714080260717
 20
8.039760411896928
 30
0.0
 11
-11.67714080260731
 21
6.9123037918817
 31
0.0
  0
LINE
  5
F9
330
1F
100
AcDbEntity
  8
0
100
AcDbLine
 10
-11.67714080260701
 20
10.29467365192727
 30
0.0
 11
-11.34901484279949
 21
10.29467365192725
 31
0.0
  0
LINE
  5
FA
330
1F
100
AcDbEntity
  8
0
100
AcDbLine
 10
11.21929983833844
 20
10.29467365192639
 30
0.0
 11
11.54846556970779
 21
10.2946736519263
 31
0.0
  0
LINE
  5
FB
330
1F
100
AcDbEntity
  8
0
100
AcDbLine
 10
15.16429153920543
 20
-16.098927025922
 30
0.0
 11
15.16429153920545
 21
-16.42506149829414
 31
0.0
  0
LINE
  5
FC
330
1F
100
AcDbEntity
  8
0
100
AcDbLine
 10
15.16429153920545
 20
-16.42506149829414
 30
0.0
 11
12.90937829917503
 21
-16.42506149829416
 31
0.0
  0
LINE
  5
FD
330
1F
100
AcDbEntity
  8
0
100
AcDbLine
 10
15.16429153920543
 20
6.799558129880011
 30
0.0
 11
16.29174815922061
 21
6.79955812987997
 31
0.0
  0
LINE
  5
FE
330
1F
100
AcDbEntity
  8
0
100
AcDbLine
 10
16.29174815922061
 20
-16.09892702592198
 30
0.0
 11
15.16429153920543
 21
-16.098927025922
 31
0.0
  0
LINE
  5
FF
330
1F
100
AcDbEntity
  8
0
100
AcDbLine
 10
16.29174815922061
 20
6.79955812987997
 30
0.0
 11
16.29174815922061
 21
-16.09892702592198
 31
0.0
  0
LINE
  5
100
330
1F
100
AcDbEntity
  8
0
100
AcDbLine
 10
15.16429153920543
 20
6.472436913368521
 30
0.0
 11
15.16429153920543
 21
6.799558129880011
 31
0.0
  0
LINE
  5
101
330
1F
100
AcDbEntity
  8
0
100
AcDbLine
 10
13.47310660918261
 20
-9.71733551590577
 30
0.0
 11
14.60056322919784
 21
-9.71733551590577
 31
0.0
  0
LINE
  5
102
330
1F
100
AcDbEntity
  8
0
100
AcDbLine
 10
13.47310660918258
 20
-10.07171683379319
 30
0.0
 11
13.47310660918261
 21
-9.71733551590577
 31
0.0
  0
LINE
  5
103
330
1F
100
AcDbEntity
  8
0
100
AcDbLine
 10
14.60056322919782
 20
-10.07171683379319
 30
0.0
 11
13.47310660918258
 21
-10.07171683379319
 31
0.0
  0
LINE
  5
104
330
1F
100
AcDbEntity
  8
0
100
AcDbLine
 10
14.60056322919784
 20
-9.71733551590577
 30
0.0
 11
14.60056322919782
 21
-10.07171683379319
 31
0.0
  0
LINE
  5
105
330
1F
100
AcDbEntity
  8
0
100
AcDbLine
 10
12.12015866516436
 20
1.947478165771029
 30
0.0
 11
12.12015866516436
 21
4.20439647888908
 31
0.0
  0
LINE
  5
106
330
1F
100
AcDbEntity
  8
0
100
AcDbLine
 10
11.7819216791598
 20
4.204396478889076
 30
0.0
 11
11.78192167915977
 21
6.79955812987997
 31
0.0
  0
LINE
  5
107
330
1F
100
AcDbEntity
  8
0
100
AcDbLine
 10
11.78192167915977
 20
6.79955812987997
 30
0.0
 11
12.909378299175
 21
6.799558129880017
 31
0.0
  0
LINE
  5
108
330
1F
100
AcDbEntity
  8
0
100
AcDbLine
 10
12.909378299175
 20
6.799558129880017
 30
0.0
 11
12.909378299175
 21
6.472436913368528
 31
0.0
  0
LINE
  5
109
330
1F
100
AcDbEntity
  8
0
100
AcDbLine
 10
12.909378299175
 20
6.472436913368528
 30
0.0
 11
15.16429153920543
 21
6.472436913368521
 31
0.0
  0
LINE
  5
10A
330
1F
100
AcDbEntity
  8
0
100
AcDbLine
 10
14.60056322919782
 20
-4.56862139562563
 30
0.0
 11
13.47310660918258
 21
-4.568621395625629
 31
0.0
  0
LINE
  5
10B
330
1F
100
AcDbEntity
  8
0
100
AcDbLine
 10
12.90937829917503
 20
-16.42506149829416
 30
0.0
 11
12.909378299175
 21
-16.09892702592201
 31
0.0
  0
LINE
  5
10C
330
1F
100
AcDbEntity
  8
0
100
AcDbLine
 10
14.60056322919782
 20
-4.243007532971307
 30
0.0
 11
14.60056322919782
 21
-4.56862139562563
 31
0.0
  0
LINE
  5
10D
330
1F
100
AcDbEntity
  8
0
100
AcDbLine
 10
12.12015866516436
 20
4.20439647888908
 30
0.0
 11
11.7819216791598
 21
4.204396478889076
 31
0.0
  0
LINE
  5
10E
330
1F
100
AcDbEntity
  8
0
100
AcDbLine
 10
13.47310660918258
 20
-4.241500179114155
 30
0.0
 11
14.60056322919782
 21
-4.243007532971307
 31
0.0
  0
LINE
  5
10F
330
1F
100
AcDbEntity
  8
0
100
AcDbLine
 10
13.47310660918258
 20
-4.568621395625629
 30
0.0
 11
13.47310660918258
 21
-4.241500179114155
 31
0.0
  0
LINE
  5
110
330
1F
100
AcDbEntity
  8
0
100
AcDbLine
 10
12.909378299175
 20
-16.09892702592201
 30
0.0
 11
11.78192167915979
 21
-16.09892702592198
 31
0.0
  0
LINE
  5
111
330
1F
100
AcDbEntity
  8
0
100
AcDbLine
 10
11.7819216791598
 20
1.947478165771027
 30
0.0
 11
12.12015866516436
 21
1.947478165771029
 31
0.0
  0
LINE
  5
112
330
1F
100
AcDbEntity
  8
0
100
AcDbLine
 10
11.78192167915979
 20
-16.09892702592198
 30
0.0
 11
11.78192167915977
 21
-13.83289801639845
 31
0.0
  0
LINE
  5
113
330
1F
100
AcDbEntity
  8
0
100
AcDbLine
 10
11.78192167915977
 20
-13.83289801639845
 30
0.0
 11
12.12015866516435
 21
-13.83289801639846
 31
0.0
  0
LINE
  5
114
330
1F
100
AcDbEntity
  8
0
100
AcDbLine
 10
12.12015866516435
 20
-11.57798477636803
 30
0.0
 11
11.78192167915977
 21
-11.57798477636802
 31
0.0
  0
LINE
  5
115
330
1F
100
AcDbEntity
  8
0
100
AcDbLine
 10
11.7819216791598
 20
1.947478165771027
 30
0.0
 11
11.78192167915977
 21
-11.57798477636802
 31
0.0
  0
LINE
  5
116
330
1F
100
AcDbEntity
  8
0
100
AcDbLine
 10
12.12015866516435
 20
-13.83289801639846
 30
0.0
 11
12.12015866516435
 21
-11.57798477636803
 31
0.0
  0
LINE
  5
117
330
1F
100
AcDbEntity
  8
0
100
AcDbLine
 10
14.60056322919782
 20
1.157534202912199
 30
0.0
 11
14.60056322919782
 21
0.8319203402578805
 31
0.0
  0
LINE
  5
118
330
1F
100
AcDbEntity
  8
0
100
AcDbLine
 10
14.60056322919782
 20
0.8319203402578805
 30
0.0
 11
13.47310660918258
 21
0.8319203402578599
 31
0.0
  0
LINE
  5
119
330
1F
100
AcDbEntity
  8
0
100
AcDbLine
 10
13.47310660918258
 20
0.8319203402578599
 30
0.0
 11
13.47310660918258
 21
1.15904155676933
 31
0.0
  0
LINE
  5
11A
330
1F
100
AcDbEntity
  8
0
100
AcDbLine
 10
13.47310660918258
 20
1.15904155676933
 30
0.0
 11
14.60056322919782
 21
1.157534202912199
 31
0.0
  0
LINE
  5
11B
330
1F
100
AcDbEntity
  8
0
100
AcDbLine
 10
0.0015959284462418
 20
19.39058928078228
 30
0.0
 11
0.0015959284462418
 21
19.38580560522212
 31
0.0
  0
LINE
  5
11C
330
1F
100
AcDbEntity
  8
0
100
AcDbLine
 10
-9.12173158324173
 20
-16.46745730164896
 30
0.0
 11
-9.036878266188118
 21
-16.46745730164896
 31
0.0
  0
ENDSEC
  0
SECTION
  2
OBJECTS
  0
DICTIONARY
  5
C
330
0
100
AcDbDictionary
  3
ACAD_GROUP
350
D
  3
ACAD_LAYOUT
350
1A
  3
ACAD_MATERIAL
350
43
  3
ACAD_MLEADERSTYLE
350
5B
  3
ACAD_MLINESTYLE
350
17
  3
ACAD_PLOTSETTINGS
350
19
  3
ACAD_SCALELIST
350
47
  3
ACAD_VISUALSTYLE
350
2A
  3
ACDBHEADERROUNDTRIPXREC
350
11D
  3
ACDBVARIABLEDICTIONARY
350
13E
  3
DWGPROPS
350
145
  0
DICTIONARY
  5
146
330
8
100
AcDbDictionary
280
     1
  3
ACAD_XREC_ROUNDTRIP
360
147
  0
DICTIONARY
  5
D
102
{ACAD_REACTORS
330
C
102
}
330
C
100
AcDbDictionary
  0
DICTIONARY
  5
1A
102
{ACAD_REACTORS
330
C
102
}
330
C
100
AcDbDictionary
  0
DICTIONARY
  5
43
102
{ACAD_REACTORS
330
C
102
}
330
C
100
AcDbDictionary
  3
BYBLOCK
350
45
  3
BYLAYER
350
44
  3
GLOBAL
350
46
  0
DICTIONARY
  5
5B
102
{ACAD_REACTORS
330
C
102
}
330
C
100
AcDbDictionary
  3
STANDARD
350
5C
  0
DICTIONARY
  5
17
102
{ACAD_REACTORS
330
C
102
}
330
C
100
AcDbDictionary
  3
STANDARD
350
18
  0
DICTIONARY
  5
19
102
{ACAD_REACTORS
330
C
102
}
330
C
100
AcDbDictionary
  0
DICTIONARY
  5
47
102
{ACAD_REACTORS
330
C
102
}
330
C
100
AcDbDictionary
  3
A0
350
48
  3
A1
350
49
  3
A2
350
4A
  3
A3
350
4B
  3
A4
350
4C
  3
A5
350
4D
  3
A6
350
4E
  3
A7
350
4F
  3
A8
350
50
  3
A9
350
51
  3
B1
350
52
  3
B2
350
53
  3
B3
350
54
  3
B4
350
55
  3
B5
350
56
  3
B6
350
57
  3
B7
350
58
  0
DICTIONARY
  5
2A
102
{ACAD_REACTORS
330
C
102
}
330
C
100
AcDbDictionary
  3
2DWIREFRAME
350
2F
  3
BASIC
350
32
  3
BRIGHTEN
350
36
  3
COLORCHANGE
350
3A
  3
CONCEPTUAL
350
34
  3
DIM
350
35
  3
EDGECOLOROFF
350
3D
  3
FACEPATTERN
350
39
  3
FLAT
350
2B
  3
FLATWITHEDGES
350
2C
  3
GOURAUD
350
2D
  3
GOURAUDWITHEDGES
350
2E
  3
HIDDEN
350
31
  3
JITTEROFF
350
3B
  3
LINEPATTERN
350
38
  3
OVERHANGOFF
350
3C
  3
REALISTIC
350
33
  3
SHADED
350
42
  3
SHADED_WITH_EDGES
350
41
  3
SHADES_OF_GRAY
350
3E
  3
SKETCHY
350
3F
  3
THICKEN
350
37
  3
WIREFRAME
350
30
  3
X-RAY
350
40
  0
DICTIONARY
  5
11D
102
{ACAD_REACTORS
330
C
102
}
330
C
100
AcDbDictionary
  3
CEPSNID
350
127
  3
CEPSNTYPE
350
126
  3
DIMSTYLEDATA
350
13D
  3
FINGERPRINTGUID
350
128
  3
HYPERLINKBASE
350
120
  3
INSUNITS
350
125
  3
LAYOUTDICT
350
122
  3
LWETCUNION
350
124
  3
PLOTSETDICT
350
123
  3
PSVPSCALE
350
12A
  3
PUCSBASE
350
12D
  3
PUCSORGBACK
350
133
  3
PUCSORGBOTTOM
350
12F
  3
PUCSORGFRONT
350
132
  3
PUCSORGLEFT
350
130
  3
PUCSORGRIGHT
350
131
  3
PUCSORGTOP
350
12E
  3
PUCSORTHOREF
350
12B
  3
PUCSORTHOVIEW
350
12C
  3
STYLESHEET
350
121
  3
TSTACKALIGN
350
11E
  3
TSTACKSIZE
350
11F
  3
UCSBASE
350
136
  3
UCSORGBACK
350
13C
  3
UCSORGBOTTOM
350
138
  3
UCSORGFRONT
350
13B
  3
UCSORGLEFT
350
139
  3
UCSORGRIGHT
350
13A
  3
UCSORGTOP
350
137
  3
UCSORTHOREF
350
134
  3
UCSORTHOVIEW
350
135
  3
VERSIONGUID
350
129
  0
DICTIONARY
  5
13E
102
{ACAD_REACTORS
330
C
102
}
330
C
100
AcDbDictionary
  3
CANNOSCALE
350
148
  3
CMLEADERSTYLE
350
140
  3
CTABLESTYLE
350
13F
  3
DIMASSOC
350
143
  3
HIDETEXT
350
144
  3
MSLTSCALE
350
149
  0
XRECORD
  5
145
102
{ACAD_REACTORS
330
C
102
}
330
C
100
AcDbXrecord
  1
DWGPROPS COOKIE
  2

  3

  4

  6

  7

  8
accom
  9

300
=
301
=
302
=
303
=
304
=
305
=
306
=
307
=
308
=
309
=
 40
0.0
 41
2459678.937277384
 42
2459678.937277477
  1

 90
        0
  0
XRECORD
  5
147
102
{ACAD_REACTORS
330
146
102
}
330
146
100
AcDbXrecord
102
VTR_0.000_0.000_1.000_1.000_VISUALSTYLE
340
2F
102
VTR_0.000_0.000_1.000_1.000_GRIDDISPLAY
 70
     3
102
VTR_0.000_0.000_1.000_1.000_GRIDMAJOR
 70
     5
102
VTR_0.000_0.000_1.000_1.000_DEFAULTLIGHTING
280
     1
102
VTR_0.000_0.000_1.000_1.000_DEFAULTLIGHTINGTYPE
 70
     1
102
VTR_0.000_0.000_1.000_1.000_BRIGHTNESS
141
0.0
102
VTR_0.000_0.000_1.000_1.000_CONTRAST
142
0.0
  0
MATERIAL
  5
45
102
{ACAD_REACTORS
330
43
102
}
102
{ACAD_XDICTIONARY
360
14C
102
}
330
43
100
AcDbMaterial
  1
BYBLOCK
  0
MATERIAL
  5
44
102
{ACAD_REACTORS
330
43
102
}
102
{ACAD_XDICTIONARY
360
14A
102
}
330
43
100
AcDbMaterial
  1
BYLAYER
  0
MATERIAL
  5
46
102
{ACAD_REACTORS
330
43
102
}
102
{ACAD_XDICTIONARY
360
14E
102
}
330
43
100
AcDbMaterial
  1
GLOBAL
  0
ACAD_PROXY_OBJECT
  5
5C
102
{ACAD_REACTORS
330
5B
102
}
330
5B
100
AcDbProxyObject
 90
      499
 91
      505
 93
      610
310
40901902A4063FBFFFFFE056BD1B81E855B9FC0AD7A3703D0AD73F4214DD185B99185C9900AD7A3703D0AC73F90141901A02B5E8DC0F42B1CFC02B5E8DC0F42B1CFE5764000000000000300FC0
340
14
340
0
340
11
340
0
 94
        0
1001
ACAD_MLEADERVER
1070
     2
  0
MLINESTYLE
  5
18
102
{ACAD_REACTORS
330
17
102
}
330
17
100
AcDbMlineStyle
  2
Standard
 70
     0
  3

 62
   256
 51
90.0
 52
90.0
 71
     2
 49
0.5
 62
   256
  6
BYLAYER
 49
-0.5
 62
   256
  6
BYLAYER
  0
ACAD_PROXY_OBJECT
  5
48
102
{ACAD_REACTORS
330
47
102
}
330
47
100
AcDbProxyObject
 90
      499
 91
      503
 93
       41
310
903313A31580
  0
ACAD_PROXY_OBJECT
  5
49
102
{ACAD_REACTORS
330
47
102
}
330
47
100
AcDbProxyObject
 90
      499
 91
      503
 93
      257
310
90E312F31323822203D2031272D3022000000000000200FC000000000000284000
  0
ACAD_PROXY_OBJECT
  5
4A
102
{ACAD_REACTORS
330
47
102
}
330
47
100
AcDbProxyObject
 90
      499
 91
      503
 93
      249
310
90D312F363422203D2031272D3022000000000000240FC000000000000284000
  0
ACAD_PROXY_OBJECT
  5
4B
102
{ACAD_REACTORS
330
47
102
}
330
47
100
AcDbProxyObject
 90
      499
 91
      503
 93
      249
310
90D312F333222203D2031272D3022000000000000280FC000000000000284000
  0
ACAD_PROXY_OBJECT
  5
4C
102
{ACAD_REACTORS
330
47
102
}
330
47
100
AcDbProxyObject
 90
      499
 91
      503
 93
      249
310
90D312F313622203D2031272D30220000000000002C0FC000000000000284000
  0
ACAD_PROXY_OBJECT
  5
4D
102
{ACAD_REACTORS
330
47
102
}
330
47
100
AcDbProxyObject
 90
      499
 91
      503
 93
      249
310
90D332F333222203D2031272D30220000000000002E0FC000000000000284000
  0
ACAD_PROXY_OBJECT
  5
4E
102
{ACAD_REACTORS
330
47
102
}
330
47
100
AcDbProxyObject
 90
      499
 91
      503
 93
      241
310
90C312F3822203D2031272D3022000000000000300FC000000000000284000
  0
ACAD_PROXY_OBJECT
  5
4F
102
{ACAD_REACTORS
330
47
102
}
330
47
100
AcDbProxyObject
 90
      499
 91
      503
 93
      249
310
90D332F313622203D2031272D3022000000000000320FC000000000000284000
  0
ACAD_PROXY_OBJECT
  5
50
102
{ACAD_REACTORS
330
47
102
}
330
47
100
AcDbProxyObject
 90
      499
 91
      503
 93
      241
310
90C312F3422203D2031272D3022000000000000340FC000000000000284000
  0
ACAD_PROXY_OBJECT
  5
51
102
{ACAD_REACTORS
330
47
102
}
330
47
100
AcDbProxyObject
 90
      499
 91
      503
 93
      241
310
90C332F3822203D2031272D3022000000000000360FC000000000000284000
  0
ACAD_PROXY_OBJECT
  5
52
102
{ACAD_REACTORS
330
47
102
}
330
47
100
AcDbProxyObject
 90
      499
 91
      503
 93
      241
310
90C312F3222203D2031272D3022000000000000380FC000000000000284000
  0
ACAD_PROXY_OBJECT
  5
53
102
{ACAD_REACTORS
330
47
102
}
330
47
100
AcDbProxyObject
 90
      499
 91
      503
 93
      241
310
90C332F3422203D2031272D30220000000000003A0FC000000000000284000
  0
ACAD_PROXY_OBJECT
  5
54
102
{ACAD_REACTORS
330
47
102
}
330
47
100
AcDbProxyObject
 90
      499
 91
      503
 93
      161
310
90A3122203D2031272D30224000000000000284000
  0
ACAD_PROXY_OBJECT
  5
55
102
{ACAD_REACTORS
330
47
102
}
330
47
100
AcDbProxyObject
 90
      499
 91
      503
 93
      257
310
90E312D312F3222203D2031272D30220000000000003E0FC000000000000284000
  0
ACAD_PROXY_OBJECT
  5
56
102
{ACAD_REACTORS
330
47
102
}
330
47
100
AcDbProxyObject
 90
      499
 91
      503
 93
      225
310
90A3322203D2031272D302200000000000002100000000000000284000
  0
ACAD_PROXY_OBJECT
  5
57
102
{ACAD_REACTORS
330
47
102
}
330
47
100
AcDbProxyObject
 90
      499
 91
      503
 93
      225
310
90A3622203D2031272D302200000000000006100000000000000284000
  0
ACAD_PROXY_OBJECT
  5
58
102
{ACAD_REACTORS
330
47
102
}
330
47
100
AcDbProxyObject
 90
      499
 91
      503
 93
      249
310
90D31272D3022203D2031272D30220000000000000A100000000000000284000
  0
ACAD_PROXY_OBJECT
  5
2F
102
{ACAD_REACTORS
330
2A
102
}
330
2A
100
AcDbProxyObject
 90
      499
 91
      501
 93
      436
310
42CC9915DA5C99599C985B595049028333333333333E33F0000000000000F90107901411070040501600405405064090741402480A0340
1001
ACAD
1000
AcDbSavedByObjectVersion
1070
     0
  0
ACAD_PROXY_OBJECT
  5
32
102
{ACAD_REACTORS
330
2A
102
}
330
2A
100
AcDbProxyObject
 90
      499
 91
      501
 93
      388
310
4150985CDA58D07406404333333333333E33F0000000000000F90107A41107004050150841D405064090741402480A0350
1001
ACAD
1000
AcDbSavedByObjectVersion
1070
     0
  0
ACAD_PROXY_OBJECT
  5
36
102
{ACAD_REACTORS
330
2A
102
}
330
2A
100
AcDbProxyObject
 90
      499
 91
      501
 93
      428
310
42109C9A59DA1D195B90C409028333333333333E33F0000000000000F9010790141107004050150841D405064090741402480A029950
1001
ACAD
1000
AcDbSavedByObjectVersion
1070
     0
  0
ACAD_PROXY_OBJECT
  5
3A
102
{ACAD_REACTORS
330
2A
102
}
330
2A
100
AcDbProxyObject
 90
      499
 91
      501
 93
      452
310
42D0DBDB1BDC90DA185B99D95104090240C333333333333E33F0000000000000F90108901411070040501508421405064090741402480A0350
1001
ACAD
1000
AcDbSavedByObjectVersion
1070
     0
  0
ACAD_PROXY_OBJECT
  5
34
102
{ACAD_REACTORS
330
2A
102
}
330
2A
100
AcDbProxyObject
 90
      499
 91
      501
 93
      500
310
4290DBDB98D95C1D1D585B10940D028333333333333E33F0000000000000F90107902409070040501000000000018199010841D405064090740C02480A0340
1001
ACAD
1000
AcDbSavedByObjectVersion
1070
     0
  0
ACAD_PROXY_OBJECT
  5
35
102
{ACAD_REACTORS
330
2A
102
}
330
2A
100
AcDbProxyObject
 90
      499
 91
      501
 93
      412
310
40D11A5B50B409028333333333333E33F0000000000000F9010790141107004050150841D405064090741402480A02677FFFFFD0
1001
ACAD
1000
AcDbSavedByObjectVersion
1070
     0
  0
ACAD_PROXY_OBJECT
  5
3D
102
{ACAD_REACTORS
330
2A
102
}
330
2A
100
AcDbProxyObject
 90
      499
 91
      501
 93
      452
310
43115919D950DBDB1BDC93D999916409028333333333333E33F0000000000000F9010790141107004050150841D405064090741402480A0350
1001
ACAD
1000
AcDbSavedByObjectVersion
1070
     0
  0
ACAD_PROXY_OBJECT
  5
39
102
{ACAD_REACTORS
330
2A
102
}
330
2A
100
AcDbProxyObject
 90
      499
 91
      501
 93
      444
310
42D19858D95C185D1D195C9B90F409028333333333333E33F0000000000000F9010790141107004050150841D405064090741402480A0350
1001
ACAD
1000
AcDbSavedByObjectVersion
1070
     0
  0
ACAD_PROXY_OBJECT
  5
2B
102
{ACAD_REACTORS
330
2A
102
}
330
2A
100
AcDbProxyObject
 90
      499
 91
      501
 93
      380
310
41119B185D240901404333333333333E33F0000000000000F9010740A907004050150841D405064090741402480A1B50
1001
ACAD
1000
AcDbSavedByObjectVersion
1070
     0
  0
ACAD_PROXY_OBJECT
  5
2C
102
{ACAD_REACTORS
330
2A
102
}
330
2A
100
AcDbProxyObject
 90
      499
 91
      501
 93
      468
310
43519B185D15DA5D1A115919D95CD0140901404333333333333E33F0000000000000F90107409019070040501600405405064090741402480A1B50
1001
ACAD
1000
AcDbSavedByObjectVersion
1070
     0
  0
ACAD_PROXY_OBJECT
  5
2D
102
{ACAD_REACTORS
330
2A
102
}
330
2A
100
AcDbProxyObject
 90
      499
 91
      501
 93
      404
310
41D1DBDD5C985D5910240902404333333333333E33F0000000000000F9010740A9070040501641D405064090741402480A1B50
1001
ACAD
1000
AcDbSavedByObjectVersion
1070
     0
  0
ACAD_PROXY_OBJECT
  5
2E
102
{ACAD_REACTORS
330
2A
102
}
330
2A
100
AcDbProxyObject
 90
      499
 91
      501
 93
      492
310
4411DBDD5C985D5915DA5D1A115919D95CD0340902404333333333333E33F0000000000000F90107409019070040501600405405064090741402480A1B50
1001
ACAD
1000
AcDbSavedByObjectVersion
1070
     0
  0
ACAD_PROXY_OBJECT
  5
31
102
{ACAD_REACTORS
330
2A
102
}
330
2A
100
AcDbProxyObject
 90
      499
 91
      501
 93
      476
310
41921A5919195B90640502408333333333333E33F0000000000000F901079024090700405020000000000001110200405405064090740C02480A0340
1001
ACAD
1000
AcDbSavedByObjectVersion
1070
     0
  0
ACAD_PROXY_OBJECT
  5
3B
102
{ACAD_REACTORS
330
2A
102
}
330
2A
100
AcDbProxyObject
 90
      499
 91
      501
 93
      428
310
42529A5D1D195C93D999914409028333333333333E33F0000000000000F9010790141107004050150A41D405064090741402480A0350
1001
ACAD
1000
AcDbSavedByObjectVersion
1070
     0
  0
ACAD_PROXY_OBJECT
  5
38
102
{ACAD_REACTORS
330
2A
102
}
330
2A
100
AcDbProxyObject
 90
      499
 91
      501
 93
      444
310
42D31A5B995C185D1D195C9B90E409028333333333333E33F0000000000000F9010790141107004050750841D405064090741402483A0350
1001
ACAD
1000
AcDbSavedByObjectVersion
1070
     0
  0
ACAD_PROXY_OBJECT
  5
3C
102
{ACAD_REACTORS
330
2A
102
}
330
2A
100
AcDbProxyObject
 90
      499
 91
      501
 93
      444
310
42D3DD995C9A185B99D3D999915409028333333333333E33F0000000000000F9010790141107004050150941D405064090741402480A0350
1001
ACAD
1000
AcDbSavedByObjectVersion
1070
     0
  0
ACAD_PROXY_OBJECT
  5
33
102
{ACAD_REACTORS
330
2A
102
}
330
2A
100
AcDbProxyObject
 90
      499
 91
      501
 93
      428
310
425499585B1A5CDD1A58D08409038333333333333E33F0000000000000F9010740A907004050150800405405064090740C02480A1B40
1001
ACAD
1000
AcDbSavedByObjectVersion
1070
     0
  0
ACAD_PROXY_OBJECT
  5
42
102
{ACAD_REACTORS
330
2A
102
}
330
2A
100
AcDbProxyObject
 90
      499
 91
      501
 93
      420
310
4194DA1859195911B40902404333333333333E33F0000000000000F9010740A41107004050150800405405064090840C02480A0B40
1001
ACAD
1000
AcDbSavedByObjectVersion
1070
     0
  0
ACAD_PROXY_OBJECT
  5
41
102
{ACAD_REACTORS
330
2A
102
}
330
2A
100
AcDbProxyObject
 90
      499
 91
      501
 93
      516
310
4454DA18591959081DDA5D1A08195919D95CD1A40902404333333333333E33F0000000000000F901074090142907004050250800405405064090740C02480A0B40
1001
ACAD
1000
AcDbSavedByObjectVersion
1070
     0
  0
ACAD_PROXY_OBJECT
  5
3E
102
{ACAD_REACTORS
330
2A
102
}
330
2A
100
AcDbProxyObject
 90
      499
 91
      501
 93
      532
310
4394DA1859195CC81BD98811DC985E5174090240C333333333333E33F0000000000000F901079024090741D01000000000000111010841D405064090740C02480A0340
1001
ACAD
1000
AcDbSavedByObjectVersion
1070
     0
  0
ACAD_PROXY_OBJECT
  5
3F
102
{ACAD_REACTORS
330
2A
102
}
330
2A
100
AcDbProxyObject
 90
      499
 91
      501
 93
      476
310
41D4DAD95D18DA1E51840502408333333333333E33F0000000000000F901079024090741D01000000000000111010B41D405064090741802480A0340
1001
ACAD
1000
AcDbSavedByObjectVersion
1070
     0
  0
ACAD_PROXY_OBJECT
  5
37
102
{ACAD_REACTORS
330
2A
102
}
330
2A
100
AcDbProxyObject
 90
      499
 91
      501
 93
      412
310
41D51A1A58DAD95B90D409028333333333333E33F0000000000000F9010790141107004050150C41D405064090741402480A0350
1001
ACAD
1000
AcDbSavedByObjectVersion
1070
     0
  0
ACAD_PROXY_OBJECT
  5
30
102
{ACAD_REACTORS
330
2A
102
}
330
2A
100
AcDbProxyObject
 90
      499
 91
      501
 93
      420
310
4255DA5C99599C985B595059028333333333333E33F0000000000000F90107901411070040501600405405064090740C02480A0340
1001
ACAD
1000
AcDbSavedByObjectVersion
1070
     0
  0
ACAD_PROXY_OBJECT
  5
40
102
{ACAD_REACTORS
330
2A
102
}
330
2A
100
AcDbProxyObject
 90
      499
 91
      501
 93
      404
310
41560B54985E51940902404000000000000E03F0000000000000F9010740501907004050150841D405064090740C02480A1B40
1001
ACAD
1000
AcDbSavedByObjectVersion
1070
     0
  0
XRECORD
  5
127
102
{ACAD_REACTORS
330
11D
102
}
330
11D
100
AcDbXrecord
340
0
  0
XRECORD
  5
126
102
{ACAD_REACTORS
330
11D
102
}
330
11D
100
AcDbXrecord
 90
        0
  0
XRECORD
  5
13D
102
{ACAD_REACTORS
330
11D
102
}
330
11D
100
AcDbXrecord
1000
DSTYLE
1002
{
1070
   171
 70
     2
1070
   143
 40
25.4
1070
   274
 70
     2
1070
    41
 40
0.18
1070
   141
 40
0.09
1070
   271
 70
     4
1070
    43
 40
0.38
1070
   278
 70
    46
1070
    44
 40
0.18
1070
    42
 40
0.0625
1070
   147
 40
0.09
1070
    77
 70
     0
1070
   272
 70
     4
1070
    73
 70
     1
1070
   172
 70
     0
1070
    74
 70
     1
1070
   283
 70
     1
1070
   340
340
11
1070
   140
 40
0.18
1070
   284
 70
     0
1070
    78
 70
     0
1002
}
  0
XRECORD
  5
128
102
{ACAD_REACTORS
330
11D
102
}
330
11D
100
AcDbXrecord
  1
{66be2702-522a-4908-a93f-207f4633d409}
  0
XRECORD
  5
120
102
{ACAD_REACTORS
330
11D
102
}
330
11D
100
AcDbXrecord
  1

  0
XRECORD
  5
125
102
{ACAD_REACTORS
330
11D
102
}
330
11D
100
AcDbXrecord
 90
        5
  0
XRECORD
  5
122
102
{ACAD_REACTORS
330
11D
102
}
330
11D
100
AcDbXrecord
340
1A
  0
XRECORD
  5
124
102
{ACAD_REACTORS
330
11D
102
}
330
11D
100
AcDbXrecord
 90
    10781
  0
XRECORD
  5
123
102
{ACAD_REACTORS
330
11D
102
}
330
11D
100
AcDbXrecord
340
19
  0
XRECORD
  5
12A
102
{ACAD_REACTORS
330
11D
102
}
330
11D
100
AcDbXrecord
 40
0.0
  0
XRECORD
  5
12D
102
{ACAD_REACTORS
330
11D
102
}
330
11D
100
AcDbXrecord
340
0
  0
XRECORD
  5
133
102
{ACAD_REACTORS
330
11D
102
}
330
11D
100
AcDbXrecord
 10
0.0
 20
0.0
 30
0.0
  0
XRECORD
  5
12F
102
{ACAD_REACTORS
330
11D
102
}
330
11D
100
AcDbXrecord
 10
0.0
 20
0.0
 30
0.0
  0
XRECORD
  5
132
102
{ACAD_REACTORS
330
11D
102
}
330
11D
100
AcDbXrecord
 10
0.0
 20
0.0
 30
0.0
  0
XRECORD
  5
130
102
{ACAD_REACTORS
330
11D
102
}
330
11D
100
AcDbXrecord
 10
0.0
 20
0.0
 30
0.0
  0
XRECORD
  5
131
102
{ACAD_REACTORS
330
11D
102
}
330
11D
100
AcDbXrecord
 10
0.0
 20
0.0
 30
0.0
  0
XRECORD
  5
12E
102
{ACAD_REACTORS
330
11D
102
}
330
11D
100
AcDbXrecord
 10
0.0
 20
0.0
 30
0.0
  0
XRECORD
  5
12B
102
{ACAD_REACTORS
330
11D
102
}
330
11D
100
AcDbXrecord
340
0
  0
XRECORD
  5
12C
102
{ACAD_REACTORS
330
11D
102
}
330
11D
100
AcDbXrecord
 70
     0
  0
XRECORD
  5
121
102
{ACAD_REACTORS
330
11D
102
}
330
11D
100
AcDbXrecord
  1

  0
XRECORD
  5
11E
102
{ACAD_REACTORS
330
11D
102
}
330
11D
100
AcDbXrecord
 90
        1
  0
XRECORD
  5
11F
102
{ACAD_REACTORS
330
11D
102
}
330
11D
100
AcDbXrecord
 90
       70
  0
XRECORD
  5
136
102
{ACAD_REACTORS
330
11D
102
}
330
11D
100
AcDbXrecord
340
0
  0
XRECORD
  5
13C
102
{ACAD_REACTORS
330
11D
102
}
330
11D
100
AcDbXrecord
 10
0.0
 20
0.0
 30
0.0
  0
XRECORD
  5
138
102
{ACAD_REACTORS
330
11D
102
}
330
11D
100
AcDbXrecord
 10
0.0
 20
0.0
 30
0.0
  0
XRECORD
  5
13B
102
{ACAD_REACTORS
330
11D
102
}
330
11D
100
AcDbXrecord
 10
0.0
 20
0.0
 30
0.0
  0
XRECORD
  5
139
102
{ACAD_REACTORS
330
11D
102
}
330
11D
100
AcDbXrecord
 10
0.0
 20
0.0
 30
0.0
  0
XRECORD
  5
13A
102
{ACAD_REACTORS
330
11D
102
}
330
11D
100
AcDbXrecord
 10
0.0
 20
0.0
 30
0.0
  0
XRECORD
  5
137
102
{ACAD_REACTORS
330
11D
102
}
330
11D
100
AcDbXrecord
 10
0.0
 20
0.0
 30
0.0
  0
XRECORD
  5
134
102
{ACAD_REACTORS
330
11D
102
}
330
11D
100
AcDbXrecord
340
0
  0
XRECORD
  5
135
102
{ACAD_REACTORS
330
11D
102
}
330
11D
100
AcDbXrecord
 70
     0
  0
XRECORD
  5
129
102
{ACAD_REACTORS
330
11D
102
}
330
11D
100
AcDbXrecord
  1
{FAEB1C32-E019-11D5-929B-00C0DF256EC4}
  0
DICTIONARYVAR
  5
148
102
{ACAD_REACTORS
330
13E
102
}
330
13E
100
DictionaryVariables
280
     0
  1
1:1
  0
DICTIONARYVAR
  5
140
102
{ACAD_REACTORS
330
13E
102
}
330
13E
100
DictionaryVariables
280
     0
  1
Standard
  0
DICTIONARYVAR
  5
13F
102
{ACAD_REACTORS
330
13E
102
}
330
13E
100
DictionaryVariables
280
     0
  1
Standard
  0
DICTIONARYVAR
  5
143
102
{ACAD_REACTORS
330
13E
102
}
330
13E
100
DictionaryVariables
280
     0
  1
2
  0
DICTIONARYVAR
  5
144
102
{ACAD_REACTORS
330
13E
102
}
330
13E
100
DictionaryVariables
280
     0
  1
1
  0
DICTIONARYVAR
  5
149
102
{ACAD_REACTORS
330
13E
102
}
330
13E
100
DictionaryVariables
280
     0
  1
1
  0
DICTIONARY
  5
14C
330
45
100
AcDbDictionary
280
     1
  3
ACAD_XREC_ROUNDTRIP
360
14D
  0
DICTIONARY
  5
14A
330
44
100
AcDbDictionary
280
     1
  3
ACAD_XREC_ROUNDTRIP
360
14B
  0
DICTIONARY
  5
14E
330
46
100
AcDbDictionary
280
     1
  3
ACAD_XREC_ROUNDTRIP
360
14F
  0
XRECORD
  5
14D
102
{ACAD_REACTORS
330
14C
102
}
330
14C
100
AcDbXrecord
102
MATERIAL
148
0.0
149
0.0
149
0.0
 93
        0
 94
      127
282
     0
 72
     1
 77
     1
171
     1
175
     1
179
     1
273
     0
  0
XRECORD
  5
14B
102
{ACAD_REACTORS
330
14A
102
}
330
14A
100
AcDbXrecord
102
MATERIAL
148
0.0
149
0.0
149
0.0
 93
        0
 94
      127
282
     0
 72
     1
 77
     1
171
     1
175
     1
179
     1
273
     0
  0
XRECORD
  5
14F
102
{ACAD_REACTORS
330
14E
102
}
330
14E
100
AcDbXrecord
102
MATERIAL
148
0.0
149
0.0
149
0.0
 93
        0
 94
      127
282
     0
 72
     1
 77
     1
171
     1
175
     1
179
     1
273
     0
  0
ENDSEC
  0
EOF
